<svg width="200" height="600" viewBox="0 0 200 600" xmlns="http://www.w3.org/2000/svg">
  <!-- Body -->
  <path d="M 50,500 Q 10,250 50,100 Q 100,10 150,100 Q 190,250 150,500 Z" fill="black" stroke="black" stroke-width="2"/>

  <!-- Neck -->
  <rect x="85" y="10" width="30" height="500" fill="#D2B48C" stroke="black" stroke-width="2"/>

  <!-- Headstock -->
  <path d="M 85,10 Q 70,0 60,30 Q 55,50 60,60 Q 75,70 85,60 Z" fill="#D2B48C" stroke="black" stroke-width="2"/>
  
  <!-- Strings -->
  <line x1="100" y1="10" x2="100" y2="500" stroke="silver" stroke-width="1"/>
  <line x1="105" y1="10" x2="105" y2="500" stroke="silver" stroke-width="1"/>
  <line x1="110" y1="10" x2="110" y2="500" stroke="silver" stroke-width="1"/>
  <line x1="115" y1="10" x2="115" y2="500" stroke="silver" stroke-width="1"/>
  
  <!-- Pickguard -->
  <path d="M 50,200 Q 60,180 70,200 L 70,400 Q 60,420 50,400 Z" fill="white" stroke="black" stroke-width="2"/>

  <!-- Pickups -->
  <rect x="85" y="250" width="30" height="10" fill="black"/>
  <rect x="85" y="350" width="30" height="10" fill="black"/>
</svg>
