<svg xmlns="http://www.w3.org/2000/svg" xmlns:xlink="http://www.w3.org/1999/xlink" version="1.1" x="0px" y="0px" viewBox="0 0 100 125" style="enable-background:new 0 0 100 100;" xml:space="preserve"><g><path d="M81.8421555,39.8660736h-1.9061279c0.4820557-6.402832,6.2139893-5.3269043,6.2139893-9.8776245   c0-4.1561279-4.1021118-4.5340576-4.1021118-4.5340576c-0.2158813-0.9714966-1.5113525-2.5368652-3.8323364-2.5368652   c-2.3209229,0-3.616394,1.5653687-3.8322754,2.5368652c0,0-4.1021118,0.3779297-4.1021118,4.5340576   c0,4.5507202,5.7319336,3.4747925,6.2139893,9.8776245H61.5302048c0.4820557-6.402832,6.2139893-5.3269043,6.2139893-9.8776245   c0-4.1561279-4.1021729-4.5340576-4.1021729-4.5340576c-0.2158813-0.9714966-1.5113525-2.5368652-3.8322754-2.5368652   s-3.616394,1.5653687-3.8322754,2.5368652c0,0-4.1021729,0.3779297-4.1021729,4.5340576   c0,4.5507202,5.7319336,3.4747925,6.2139893,9.8776245H43.124382c0.4820557-6.402832,6.2139893-5.3269043,6.2139893-9.8776245   c0-4.1561279-4.1021729-4.5340576-4.1021729-4.5340576c-0.2158813-0.9714966-1.5113525-2.5368652-3.8322754-2.5368652   c-2.3209839,0-3.616394,1.5653687-3.8323364,2.5368652c0,0-4.1021118,0.3779297-4.1021118,4.5340576   c0,4.5507202,5.7319336,3.4747925,6.2139893,9.8776245H24.7184982c0.4820557-6.402832,6.2139893-5.3269043,6.2139893-9.8776245   c0-4.1561279-4.1021118-4.5340576-4.1021118-4.5340576c-0.2158813-0.9714966-1.5113525-2.5368652-3.8323364-2.5368652   c-2.3209229,0-3.616394,1.5653687-3.8322754,2.5368652c0,0-4.1021729,0.3779297-4.1021729,4.5340576   c0,4.5507202,5.7319946,3.4747925,6.2140503,9.8776245h-6.8619995c-1.8742676,0-3.4793091,1.3426514-3.8104248,3.1873779   l-1.574707,8.7734375c-0.0740356,0.4123535-0.3687134,0.7506104-0.7669678,0.8804932l-2.0869141,0.680542   c-0.5578613,0.1818848-0.8796997,0.7645264-0.7367554,1.3336182l3.5303345,14.0505981   c0.1470337,0.5853271,0.7403564,0.932251,1.3309937,0.8082886c10.4535522-2.1937866,15.1275024,2.2559814,17.5849609,5.7684326   c1.1331787,1.6195679,3.2445068,2.2015991,5.0180054,1.3289185c7.564209-3.722229,25.7650146-12.6934814,31.5475464-15.6800537   c6.4276733-3.3198242,7.2965698,2.4804077,14.026123,4.0145264c7.7438354,1.7653198,15.6347046-3.7059937,16.0941162-11.6351929   C94.9999313,45.9901581,89.1362228,39.8660736,81.8421555,39.8660736z"/></g></svg>