<?xml version="1.0" encoding="UTF-8"?>
<svg id="Layer_1" data-name="Layer 1" xmlns="http://www.w3.org/2000/svg" viewBox="0 0 45.65 55.8"> <defs> <style> .cls-1 { fill: none; stroke: #cecece; stroke-miterlimit: 10; stroke-width: 2px; } </style> </defs> <path class="cls-1" d="M29.86,7.1l-.63.99c-3.28-2.43-.82-5.04-3.26-6.58-2.23-1.41-3.78.59-3.78.59-.59-.22-1.86-.08-2.62,1.13s-.35,2.41.1,2.85c0,0-1.15,2.26,1.09,3.67,2.44,1.55,3.75-1.8,7.34.13l-4.92,7.77c-3.28-2.43-.82-5.04-3.26-6.58-2.23-1.41-3.78.59-3.78.59-.59-.22-1.86-.08-2.62,1.13s-.35,2.41.1,2.85c0,0-1.15,2.26,1.09,3.67,2.44,1.55,3.75-1.8,7.34.13l-4.92,7.77c-3.28-2.43-.82-5.04-3.26-6.58-2.23-1.41-3.78.59-3.78.59-.59-.22-1.86-.08-2.62,1.13s-.35,2.41.1,2.85c0,0-1.15,2.26,1.09,3.67,2.44,1.55,3.75-1.8,7.34.13l-4.92,7.77c-3.28-2.43-.82-5.04-3.26-6.58-2.23-1.41-3.78.59-3.78.59-.59-.22-1.86-.08-2.62,1.13s-.35,2.41.1,2.85c0,0-1.15,2.26,1.09,3.67,2.44,1.55,3.75-1.8,7.34.13l-2.26,3.56c-.62.97-.42,2.26.46,3.06l4.19,3.8c.2.18.28.45.22.7l-.32,1.32c-.09.35.12.72.47.84l8.7,2.94c.36.12.74-.07.87-.42,2.26-6.17,6.18-7.09,8.88-7.17,1.24-.04,2.25-.94,2.36-2.15.49-5.19,1.66-17.69,1.95-21.71.33-4.47,3.73-2.95,6.77-5.92,3.49-3.42,3.15-9.38-.96-12.31-3.82-2.73-9.04-1.77-11.44,2.02Z"/> </svg>