<?xml version="1.0" encoding="UTF-8"?>
<svg id="Layer_1" data-name="Layer 1" xmlns="http://www.w3.org/2000/svg" viewBox="0 0 17.15 21.98"><defs><style>.cls-1 { fill: none; stroke: #010101; stroke-miterlimit: 10; }</style></defs><path class="cls-1" d="M10.89,2.68l-.22.41c-1.31-.83-.43-1.93-1.4-2.44-.89-.47-1.43.36-1.43.36-.23-.06-.71.04-.97.53s-.08.95.11,1.1c0,0-.38.92.5,1.39.97.51,1.39-.83,2.81-.21l-1.69,3.19c-1.31-.83-.43-1.93-1.4-2.44-.89-.47-1.43.36-1.43.36-.23-.06-.71.04-.97.53s-.08.95.11,1.1c0,0-.38.92.5,1.39.97.51,1.39-.83,2.81-.21l-1.69,3.19c-1.31-.83-.43-1.93-1.4-2.44-.89-.47-1.43.36-1.43.36-.23-.06-.71.04-.97.53s-.08.95.11,1.1c0,0-.38.92.5,1.39.97.51,1.39-.83,2.81-.21l-1.69,3.19c-1.31-.83-.43-1.93-1.4-2.44-.89-.47-1.43.36-1.43.36-.23-.06-.71.04-.97.53s-.08.95.11,1.1c0,0-.38.92.5,1.39.97.51,1.39-.83,2.81-.21l-.78,1.46c-.21.4-.11.89.25,1.17l1.69,1.33c.08.06.12.16.1.26l-.09.52c-.02.14.06.27.2.31l3.39.84c.14.03.28-.05.32-.19.71-2.48,2.19-2.97,3.22-3.09.47-.06.84-.44.85-.92.06-2.03.21-6.93.23-8.5.02-1.74,1.35-1.27,2.44-2.53,1.25-1.45.98-3.75-.66-4.74-1.53-.93-3.49-.37-4.32,1.18Z"/></svg>